<svg xmlns="http://www.w3.org/2000/svg" width="22" height="22" viewBox="0 0 22 22">
    <g fill="none" fill-rule="evenodd">
        <g fill="#99a3ad">
            <path d="M15 0c.513 0 .936.386.993.883L16 1v1h2c1.598 0 2.904 1.249 2.995 2.824L21 5v14c0 1.598-1.249 2.904-2.824 2.995L18 22H4c-1.598 0-2.904-1.249-2.995-2.824L1 19V5c0-1.598 1.249-2.904 2.824-2.995L4 2h2V1c0-.552.448-1 1-1 .513 0 .936.386.993.883L8 1v1h6V1c0-.552.448-1 1-1zm4 10H3v9c0 .513.386.936.883.993L4 20h14c.513 0 .936-.386.993-.883L19 19v-9zM6 4H4c-.513 0-.936.386-.993.883L3 5v3h16V5c0-.513-.386-.936-.883-.993L18 4h-2v1c0 .552-.448 1-1 1-.513 0-.936-.386-.993-.883L14 5V4H8v1c0 .552-.448 1-1 1-.513 0-.936-.386-.993-.883L6 5V4z"/>
        </g>
    </g>
</svg>
